<svg width="25" height="24" viewBox="0 0 25 24" fill="none" xmlns="http://www.w3.org/2000/svg">
    <path d="M5.41307 2.65823C7.4877 2.38888 9.60296 2.25 11.7503 2.25C13.8974 2.25 16.0124 2.38885 18.0869 2.65815C20.0091 2.90769 21.3783 4.51937 21.4923 6.38495C21.1665 6.27614 20.8212 6.20396 20.46 6.17399C19.0715 6.05874 17.6673 6 16.25 6C14.8326 6 13.4285 6.05874 12.04 6.17398C9.6817 6.36971 8 8.36467 8 10.6082V14.8937C8 16.5844 8.95468 18.1326 10.4328 18.8779L7.78033 21.5303C7.56583 21.7448 7.24324 21.809 6.96299 21.6929C6.68273 21.5768 6.5 21.3033 6.5 21V16.9705C6.13649 16.9316 5.77417 16.8887 5.41308 16.8418C3.40466 16.581 2 14.8333 2 12.8626V6.63738C2 4.66672 3.40466 2.91899 5.41307 2.65823Z"
          fill="currentColor"/>
    <path d="M16.25 7.5C14.8741 7.5 13.5114 7.55702 12.1641 7.66884C10.6248 7.7966 9.5 9.10282 9.5 10.6082V14.8937C9.5 16.4014 10.628 17.7083 12.1692 17.8341C13.4131 17.9357 14.67 17.9912 15.9384 17.999L18.7197 20.7803C18.9342 20.9948 19.2568 21.059 19.537 20.9429C19.8173 20.8268 20 20.5533 20 20.25V17.8601C20.1103 17.8518 20.2206 17.8432 20.3307 17.8342C21.872 17.7085 23 16.4015 23 14.8938V10.6082C23 9.10283 21.8752 7.79661 20.336 7.66885C18.9886 7.55702 17.6259 7.5 16.25 7.5Z"
          fill="currentColor"/>
    <defs>
        <linearGradient id="paint0_linear_360_4562" x1="2" y1="2.25" x2="26.495" y2="8.92547"
                        gradientUnits="userSpaceOnUse">
            <stop stop-color="#2DCB85"/>
            <stop offset="1" stop-color="#28A08C"/>
        </linearGradient>
        <linearGradient id="paint1_linear_360_4562" x1="2" y1="2.25" x2="26.495" y2="8.92547"
                        gradientUnits="userSpaceOnUse">
            <stop stop-color="#2DCB85"/>
            <stop offset="1" stop-color="#28A08C"/>
        </linearGradient>
    </defs>
</svg>
