<svg xmlns="http://www.w3.org/2000/svg" width="12" height="12" viewBox="0 0 12 12" fill="none">
    <path fill-rule="evenodd" clip-rule="evenodd" d="M10.7071 2.70711C11.0976 2.31658 11.0976 1.68342 10.7071 1.29289C10.3166 0.902369 9.68342 0.902369 9.29289 1.29289L6 4.58579L2.70711 1.29289C2.31658 0.902369 1.68342 0.902369 1.29289 1.29289C0.902369 1.68342 0.902369 2.31658 1.29289 2.70711L4.58579 6L1.29289 9.29289C0.902369 9.68342 0.902369 10.3166 1.29289 10.7071C1.68342 11.0976 2.31658 11.0976 2.70711 10.7071L6 7.41421L9.29289 10.7071C9.68342 11.0976 10.3166 11.0976 10.7071 10.7071C11.0976 10.3166 11.0976 9.68342 10.7071 9.29289L7.41421 6L10.7071 2.70711Z" fill="currentColor"/>
</svg>
