<svg width="25" height="24" viewBox="0 0 25 24" fill="none" xmlns="http://www.w3.org/2000/svg">
    <path d="M12.145 20.9107L12.1384 20.9072L12.1158 20.8949C12.0965 20.8844 12.0689 20.8693 12.0336 20.8496C11.9629 20.8101 11.8612 20.7524 11.733 20.6769C11.4765 20.5261 11.1132 20.3039 10.6785 20.015C9.81074 19.4381 8.65122 18.5901 7.4886 17.5063C5.18781 15.3615 2.75 12.1751 2.75 8.25C2.75 5.32194 5.2136 3 8.1875 3C9.93638 3 11.5023 3.79909 12.5 5.0516C13.4977 3.79909 15.0636 3 16.8125 3C19.7864 3 22.25 5.32194 22.25 8.25C22.25 12.1751 19.8122 15.3615 17.5114 17.5063C16.3488 18.5901 15.1893 19.4381 14.3215 20.015C13.8868 20.3039 13.5235 20.5261 13.267 20.6769C13.1388 20.7524 13.0371 20.8101 12.9664 20.8496C12.9311 20.8693 12.9035 20.8844 12.8842 20.8949L12.8616 20.9072L12.855 20.9107L12.8523 20.9121C12.6323 21.0289 12.3677 21.0289 12.1477 20.9121L12.145 20.9107Z"
          fill="currentColor"/>
    <defs>
        <linearGradient id="paint0_linear_360_4634" x1="2.75" y1="3" x2="25.4765" y2="9.23049"
                        gradientUnits="userSpaceOnUse">
            <stop stop-color="#2DCB85"/>
            <stop offset="1" stop-color="#28A08C"/>
        </linearGradient>
    </defs>
</svg>
