<svg xmlns="http://www.w3.org/2000/svg" width="24" height="24" viewBox="0 0 24 24" fill="none">
    <path fill-rule="evenodd" clip-rule="evenodd" d="M12 3C7.02944 3 3 7.02944 3 12C3 16.9706 7.02944 21 12 21C16.9706 21 21 16.9706 21 12C21 7.02944 16.9706 3 12 3ZM1 12C1 5.92487 5.92487 1 12 1C18.0751 1 23 5.92487 23 12C23 18.0751 18.0751 23 12 23C5.92487 23 1 18.0751 1 12ZM12.258 7.52879C11.7924 7.44894 11.3137 7.53643 10.9065 7.77574C10.4993 8.01506 10.1899 8.39076 10.0332 8.83632C9.84991 9.35731 9.27899 9.63108 8.758 9.44781C8.23701 9.26454 7.96324 8.69362 8.14651 8.17263C8.45998 7.28152 9.07871 6.53011 9.89312 6.05148C10.7075 5.57284 11.665 5.39788 12.5961 5.55758C13.5271 5.71728 14.3716 6.20133 14.9799 6.924C15.5882 7.64653 15.9211 8.56096 15.9198 9.50539C15.9194 11.1672 14.5855 12.2192 13.7392 12.7368C13.2003 13.0663 12.9198 13.5378 12.9198 13.946V14.0044C12.9198 14.5567 12.4721 15.0044 11.9198 15.0044C11.3676 15.0044 10.9198 14.5567 10.9198 14.0044V13.946C10.9198 12.6324 11.7658 11.5992 12.6957 11.0305C13.4713 10.5563 13.9198 10.0225 13.9198 9.50448L13.9198 9.50299C13.9205 9.03067 13.7541 8.57334 13.4499 8.212C13.1457 7.85067 12.7235 7.60864 12.258 7.52879ZM15.9198 9.50539V9.50448H14.9198L15.9198 9.50597L15.9198 9.50539ZM12 16.5044C11.4477 16.5044 11 16.9521 11 17.5044C11 18.0567 11.4477 18.5044 12 18.5044H12.01C12.5623 18.5044 13.01 18.0567 13.01 17.5044C13.01 16.9521 12.5623 16.5044 12.01 16.5044H12Z" fill="currentColor"/>
</svg>
